<svg width="24" height="24" viewBox="0 0 24 24" fill="none" xmlns="http://www.w3.org/2000/svg">
<g clip-path="url(#clip0_105_41)">
<path d="M12 0C5.383 0 0 5.383 0 12C0 18.617 5.383 24 12 24C18.617 24 24 18.617 24 12C24 5.383 18.617 0 12 0Z" fill="white"/>
<path d="M18.395 20.932C17.6854 20.679 17.0753 20.2056 16.654 19.581L16.416 19.223C16.3704 19.1544 16.3086 19.0981 16.236 19.0592C16.1634 19.0203 16.0824 19 16 19H15.391L15.052 17.644C15.862 16.732 16.332 15.541 16.463 14.842C17.379 14.162 17.5 11.53 17.5 11.5C17.5 11.037 17.354 10.425 16.992 10.062C17.2947 9.49059 17.4665 8.85901 17.495 8.213L17.853 7.854C17.8996 7.80756 17.9365 7.75239 17.9618 7.69165C17.987 7.6309 18 7.56577 18 7.5C18 5.336 15.897 3 12.5 3C10.561 3 9.609 3.687 9.258 4.026C8.299 4.222 7 5.503 7 7L6.997 7.483C6.988 8.681 7.006 9.464 7.11 9.97C6.672 10.313 6.5 10.995 6.5 11.5C6.5 11.53 6.621 14.162 7.537 14.841C7.668 15.54 8.139 16.731 8.948 17.643L8.609 19H8C7.91764 19 7.83655 19.0203 7.76397 19.0592C7.69138 19.0981 7.62955 19.1544 7.584 19.223L7.346 19.58C6.92538 20.2054 6.31511 20.6794 5.605 20.932C2.822 18.934 1 15.679 1 12C1 5.935 5.935 1 12 1C18.065 1 23 5.935 23 12C23 15.679 21.178 18.934 18.395 20.932Z" fill="#1E1E1E" fill-opacity="0.8"/>
<path d="M12 0C5.383 0 0 5.383 0 12C0 18.617 5.383 24 12 24C18.617 24 24 18.617 24 12C24 5.383 18.617 0 12 0Z" fill="url(#paint0_linear_105_41)"/>
</g>
<defs>
<linearGradient id="paint0_linear_105_41" x1="1.125" y1="6.929" x2="22.875" y2="17.071" gradientUnits="userSpaceOnUse">
<stop stop-color="white" stop-opacity="0.2"/>
<stop offset="1" stop-color="white" stop-opacity="0"/>
</linearGradient>
<clipPath id="clip0_105_41">
<rect width="24" height="24" fill="white"/>
</clipPath>
</defs>
</svg>
